<svg id="Layer_1" enable-background="new 0 0 512 512" height="512" viewBox="0 0 512 512" width="512" xmlns="http://www.w3.org/2000/svg"><path d="m76 60h420v452h-420z" fill="#ffda2d"/><path d="m286 60h210v452h-210z" fill="#fdbf00"/><path d="m436 0v452h-420v-332l120-120z" fill="#f2f2f2"/><g fill="#e7e7f2"><path d="m226 0h210v452h-210z"/><path d="m136 0h-21.211l-98.789 98.789v21.211h120z"/><path d="m76 180h300v30h-300z"/><path d="m76 240h300v30h-300z"/></g><path d="m76 300h150v30h-150z" fill="#ff9100"/><path d="m196 120h180v30h-180z" fill="#e7e7f2"/><path d="m226 120h150v30h-150z" fill="#cecee6"/><path d="m226 180h150v30h-150z" fill="#cecee6"/><path d="m226 240h150v30h-150z" fill="#cecee6"/></svg>